<?xml version="1.0" standalone="no"?>
<!DOCTYPE svg PUBLIC "-//W3C//DTD SVG 20010904//EN"
 "http://www.w3.org/TR/2001/REC-SVG-20010904/DTD/svg10.dtd">
<svg version="1.0" xmlns="http://www.w3.org/2000/svg"
 width="512.000000pt" height="512.000000pt" viewBox="0 0 512.000000 512.000000"
 preserveAspectRatio="xMidYMid meet">

<g transform="translate(0.000000,512.000000) scale(0.100000,-0.100000)"
fill="#000000" stroke="none">
<path d="M630 3619 c-75 -116 -163 -304 -209 -445 -189 -575 -101 -1212 237
-1719 399 -598 1104 -945 1804 -887 824 68 1499 594 1753 1367 188 569 111
1190 -207 1688 l-50 77 -371 0 -372 -1 68 -61 c252 -227 422 -554 468 -903 15
-113 7 -343 -16 -450 -108 -516 -470 -927 -958 -1090 -177 -59 -251 -70 -457
-70 -207 0 -280 11 -459 71 -425 141 -764 481 -906 907 -59 177 -70 251 -70
457 0 140 4 206 18 270 67 318 238 619 460 811 l68 59 -374 0 -375 0 -52 -81z
m248 -130 c57 -32 77 -65 67 -111 -14 -63 -79 -74 -160 -28 -64 37 -84 74 -65
120 24 59 78 65 158 19z m3011 21 c10 -5 24 -23 31 -40 19 -46 -1 -83 -65
-120 -81 -46 -146 -35 -160 28 -10 46 10 79 67 111 54 32 96 38 127 21z
m-3194 -895 c33 -32 33 -78 0 -110 -21 -22 -33 -25 -95 -25 -62 0 -74 3 -95
25 -16 15 -25 36 -25 55 0 19 9 40 25 55 21 22 33 25 95 25 62 0 74 -3 95 -25z
m3440 0 c16 -15 25 -36 25 -55 0 -19 -9 -40 -25 -55 -21 -22 -33 -25 -95 -25
-62 0 -74 3 -95 25 -16 15 -25 36 -25 55 0 19 9 40 25 55 21 22 33 25 95 25
62 0 74 -3 95 -25z m-3217 -835 c31 -29 38 -65 18 -95 -22 -34 -105 -85 -138
-85 -39 0 -81 40 -81 78 0 38 14 57 73 93 53 34 98 37 128 9z m2926 -5 c24
-14 51 -34 61 -45 42 -47 4 -130 -59 -130 -37 0 -118 49 -142 85 -20 30 -13
66 18 95 29 27 70 25 122 -5z m-2331 -597 c32 -16 46 -39 47 -71 0 -31 -38
-103 -70 -132 -46 -41 -130 -4 -130 57 0 55 77 158 117 158 8 0 24 -5 36 -12z
m1690 -8 c35 -28 77 -103 77 -138 0 -61 -84 -98 -130 -57 -55 50 -85 140 -57
176 32 41 73 48 110 19z m-828 -235 c22 -21 25 -33 25 -95 0 -62 -3 -74 -25
-95 -15 -16 -36 -25 -55 -25 -19 0 -40 9 -55 25 -22 21 -25 33 -25 95 0 62 3
74 25 95 15 16 36 25 55 25 19 0 40 -9 55 -25z"/>
<path d="M1679 3662 c-269 -157 -479 -416 -574 -707 -44 -134 -59 -238 -59
-395 1 -356 123 -649 374 -900 251 -251 544 -373 900 -374 335 0 631 116 872
342 618 580 512 1587 -213 2022 l-82 50 -576 0 -576 0 -66 -38z m1041 -312
c201 -116 373 -221 383 -232 41 -48 4 -128 -59 -128 -24 0 -122 52 -374 196
-200 115 -348 194 -358 192 -9 -3 -167 -91 -350 -196 -362 -208 -382 -216
-421 -166 -26 33 -27 75 -3 102 9 11 175 112 367 223 431 249 395 231 425 225
14 -2 189 -100 390 -216z m-1085 -476 c9 -4 59 -70 111 -148 l94 -141 0 123
c0 117 1 124 25 147 15 16 36 25 55 25 19 0 40 -9 55 -25 l25 -24 0 -271 0
-271 -25 -24 c-24 -25 -57 -31 -90 -19 -9 4 -59 70 -111 148 l-94 141 0 -123
c0 -117 -1 -124 -25 -147 -15 -16 -36 -25 -55 -25 -19 0 -40 9 -55 25 l-25 24
0 271 0 271 25 24 c24 25 57 31 90 19z m900 -19 c16 -15 25 -36 25 -55 0 -19
-9 -40 -25 -55 -22 -23 -32 -25 -120 -25 l-95 0 0 -40 0 -40 95 0 c88 0 98 -2
120 -25 16 -15 25 -36 25 -55 0 -19 -9 -40 -25 -55 -22 -23 -32 -25 -120 -25
l-95 0 0 -95 c0 -88 -2 -98 -25 -120 -15 -16 -36 -25 -55 -25 -19 0 -40 9 -55
25 l-25 24 0 271 0 271 25 24 c23 24 28 25 175 25 147 0 152 -1 175 -25z m560
0 c16 -15 25 -36 25 -55 0 -51 -38 -80 -105 -80 l-55 0 0 -215 c0 -216 0 -216
-25 -240 -15 -16 -36 -25 -55 -25 -19 0 -40 9 -55 25 -25 24 -25 24 -25 240
l0 215 -55 0 c-67 0 -105 29 -105 80 0 19 9 40 25 55 24 25 26 25 215 25 189
0 191 0 215 -25z m-1121 -925 l346 -200 346 200 c375 217 393 224 433 174 26
-33 27 -75 4 -102 -29 -33 -753 -445 -782 -445 -16 0 -161 78 -361 193 -184
107 -354 205 -378 218 -66 37 -81 86 -41 136 40 50 58 43 433 -174z"/>
<path d="M4276 3483 c30 -65 66 -155 81 -200 l27 -83 153 0 c84 0 153 1 153 3
0 17 -75 188 -123 280 l-61 117 -142 0 -142 0 54 -117z"/>
<path d="M4434 3013 c12 -59 35 -222 42 -295 l6 -78 157 0 156 0 -3 48 c-5 83
-23 215 -38 285 l-16 67 -155 0 -155 0 6 -27z"/>
<path d="M4475 2398 c-4 -46 -15 -134 -26 -196 -10 -63 -19 -116 -19 -118 0
-2 69 -4 154 -4 139 0 155 2 160 18 13 45 37 197 44 285 l8 97 -157 0 -157 0
-7 -82z"/>
<path d="M4356 1834 c-16 -47 -53 -135 -83 -196 -29 -60 -53 -112 -53 -114 0
-2 64 -4 143 -4 l143 0 47 83 c38 69 137 293 137 311 0 3 -69 6 -153 6 l-152
0 -29 -86z"/>
<path d="M4064 1287 c-29 -40 -86 -111 -128 -159 l-77 -88 120 0 119 0 75 70
c71 66 217 230 217 244 0 3 -62 6 -137 5 l-138 0 -51 -72z"/>
<path d="M3645 854 c-47 -40 -213 -148 -295 -194 -41 -23 -64 -38 -50 -34 89
24 228 72 305 106 86 38 265 135 265 144 0 2 -44 4 -97 4 -90 -1 -101 -3 -128
-26z"/>
</g>
</svg>
